<svg width="1000" height="1000" viewBox="0 0 1000 1000" fill="none" xmlns="http://www.w3.org/2000/svg">
<g clip-path="url(#clip0_24_87)">
<rect y="1000" width="1000" height="1000" rx="200" transform="rotate(-90 0 1000)" fill="#09090B"/>
<path d="M626.275 687.852C628.173 688.929 630.098 689.967 632.049 690.948C639.088 694.488 647.882 698.03 657.379 699.646L498.948 850.729L340.731 699.85C350.719 698.347 359.991 694.648 367.347 690.948C368.975 690.129 370.587 689.272 372.179 688.384L498.948 809.273L626.275 687.852Z" fill="#97620B"/>
<path d="M656.656 679.079C657.176 679.209 657.694 679.33 658.212 679.444C658.145 679.43 658.077 679.416 658.01 679.401C657.785 679.351 657.559 679.299 657.334 679.245L656.656 679.079Z" fill="#97620B"/>
<path d="M320.764 642.028C320.692 642.047 320.62 642.063 320.549 642.081C320.696 642.043 320.844 642.006 320.991 641.968C320.915 641.987 320.84 642.009 320.764 642.028Z" fill="#97620B"/>
<path d="M223.837 578.72C223.826 578.705 223.815 578.691 223.805 578.677L223.336 578.013C223.5 578.25 223.667 578.486 223.837 578.72Z" fill="#97620B"/>
<path d="M222.882 577.341C222.752 577.145 222.625 576.948 222.5 576.749L222.882 577.341Z" fill="#97620B"/>
<path d="M776.953 576.66L776.881 576.771C776.993 576.593 777.104 576.415 777.214 576.235C777.127 576.377 777.042 576.52 776.953 576.66Z" fill="#97620B"/>
<path d="M749.202 511.198L748.448 511.502C748.699 511.4 748.951 511.301 749.202 511.198L752.443 509.86C751.36 510.312 750.28 510.758 749.202 511.198Z" fill="#97620B"/>
<path d="M778.448 421.927L748.448 439.408V207.001H696.5L706.877 186.915C707.041 186.769 707.205 186.622 707.367 186.472L707.368 186.471C710.431 183.637 712.893 180.431 714.759 177.001H778.448V421.927Z" fill="#97620B"/>
<path d="M309.463 177.001C308.41 184.553 307.958 192.663 308.003 200.981C308.014 202.953 308.054 204.96 308.121 207.001H249.448V438.534L219.448 421.054V177.001H309.463Z" fill="#97620B"/>
<path d="M324.48 679.714C324.278 679.666 324.076 679.615 323.875 679.562L324.48 679.714Z" fill="#97620B"/>
<path d="M797.787 639.868L499.448 923.705L201.109 639.868L221.787 618.133L237.68 633.253C237.658 633.475 237.64 633.698 237.626 633.922C237.19 640.818 240.345 647.45 245.97 651.464C253.004 656.482 260.477 659.94 268.097 662.191L499.448 882.297L730.579 662.4C738.448 660.156 746.171 656.641 753.426 651.465C759.051 647.451 762.205 640.818 761.77 633.922C761.746 633.553 761.71 633.187 761.667 632.823L777.109 618.133L797.787 639.868Z" fill="#787878"/>
<path d="M393.928 611.498C370.216 570.049 364.288 528.599 364.288 528.599L150.883 404.249C139.027 475.306 249.681 512.808 299.081 528.599L180.522 498.992C185.265 551.1 269.441 564.127 316.865 564.127L222.018 575.97C239.802 605.577 299.081 611.498 334.649 593.734L257.585 635.184C290.782 658.87 342.552 637.158 364.288 623.341L316.865 676.634C340.576 690.845 378.12 662.817 393.928 647.027C417.64 680.187 451.231 696.372 465.063 700.319C453.207 682.555 417.64 652.948 393.928 611.498Z" fill="#787878"/>
<path d="M848.513 404.249C860.369 475.306 749.714 512.808 700.315 528.599L818.873 498.992C814.13 551.1 729.954 564.127 682.53 564.127L777.378 575.97C759.594 605.577 700.315 611.498 664.747 593.734L741.81 635.184C708.613 658.869 656.843 637.157 635.107 623.341L682.53 676.634C658.819 690.845 621.276 662.817 605.468 647.026C581.756 680.186 548.164 696.372 534.332 700.319C546.188 682.555 581.756 652.948 605.468 611.498C629.179 570.048 635.107 528.599 635.107 528.599L652.828 518.272C671.875 518.1 689.231 515.738 701.456 510.427C703.443 509.588 705.401 508.597 707.303 507.435L707.304 507.437C707.349 507.409 707.393 507.381 707.438 507.354C707.457 507.342 707.477 507.33 707.496 507.318L707.495 507.317C709.474 506.109 711.514 504.648 713.44 502.865L713.443 502.863C713.495 502.816 713.542 502.767 713.589 502.723C713.658 502.66 713.735 502.592 713.813 502.521C722.204 494.757 726.016 484.997 727.122 474.981L848.513 404.249Z" fill="#787878"/>
<path d="M408.754 452.273C439.517 476.565 472.76 494.664 505.413 507.789L545.418 657.092C542.518 660.252 539.89 663.077 537.193 665.998H462.202C457.999 661.443 453.958 657.127 448.801 651.403C435.787 636.959 422.085 620.441 411.288 601.567C400.456 582.632 393.594 563.507 389.445 549.004C388.071 544.2 387.009 539.945 386.204 536.427L408.754 452.273Z" fill="#F59E0B"/>
<path fill-rule="evenodd" clip-rule="evenodd" d="M668.003 147.939C675.122 141.353 686.665 141.353 693.784 147.939C700.904 154.526 700.903 165.205 693.784 171.792C689.227 176.008 682.857 177.525 676.995 176.343C676.993 177.202 676.865 178.079 676.596 178.952L629.266 332.355C691.797 403.425 722.595 467.147 700.231 487.839C700.137 487.926 700.042 488.011 699.946 488.096C699.917 488.125 699.889 488.156 699.858 488.184C699.055 488.928 698.09 489.637 696.972 490.311C695.885 490.983 694.723 491.573 693.487 492.084C656.966 507.95 520.17 497.489 421.575 411.71C328.859 320.49 317.552 193.927 334.702 160.139C335.25 159.004 335.884 157.936 336.605 156.937C337.338 155.894 338.109 154.995 338.918 154.247C338.949 154.218 338.982 154.191 339.014 154.163C339.105 154.075 339.197 153.989 339.29 153.903C360.069 134.679 420.994 157.91 491.135 207.697L660.74 162.906C661.461 162.716 662.188 162.622 662.907 162.619C661.986 157.438 663.684 151.935 668.003 147.939ZM468.924 213.563C419.178 180.26 378.749 165.099 365.07 177.754C343.712 197.515 395.655 277.609 481.087 356.65C566.519 435.691 653.09 483.747 674.448 463.987C689.639 449.932 667.748 405.354 623.099 352.342L619.392 364.359C617.915 369.143 612.794 371.985 607.953 370.707C603.113 369.428 600.385 364.513 601.861 359.729L609.097 336.277C594.073 319.589 577.048 302.315 558.432 285.091L558.431 285.09L519.758 320.871C516.198 324.164 510.427 324.164 506.867 320.871C503.308 317.577 503.308 312.238 506.867 308.945L545.406 273.288C525.594 255.698 505.903 239.877 487.16 226.287L463.029 232.661C458.498 233.857 453.704 231.197 452.322 226.718C450.941 222.24 453.494 217.639 458.025 216.442L468.924 213.563ZM468.191 368.572C446.939 388.232 426.265 407.362 422.269 411.068C426.275 407.37 446.951 388.242 468.201 368.58L468.197 368.577C468.196 368.575 468.193 368.573 468.191 368.572ZM571.321 273.164L571.323 273.166C587.022 287.69 601.68 302.313 615.124 316.743L651.44 199.041L571.321 273.164ZM508.72 220.593C525.023 232.931 541.671 246.583 558.3 261.359L639.772 185.982L508.72 220.593Z" fill="#F59E0B"/>
</g>
<defs>
<clipPath id="clip0_24_87">
<rect width="1000" height="1000" fill="white"/>
</clipPath>
</defs>
</svg>
